<?xml version='1.0' encoding='utf-8'?>
<svg xmlns="http://www.w3.org/2000/svg" width="1238.5mm" height="1574.1mm" version="1.1" viewBox="0 0 1238.5 1574.1"><g transform="translate(-7308.8 6340.5)"><path fill="#f9faf8" d="m7986.9-6340.2c-6.507 0.3878-12.964 1.1177-19.123 1.8081-33.932 4.2326-68.118 5.0666-102.28 4.3317-46.402 2.3821-99.141 35.506-96.43 87.331-19.868 2.1285-39.38 13-47.008 32.26-21.314 51.217-7.223 108.77 8.311 159.61-32.667 30.69-8.769 82.084 11.683 114.9 5.829 11.708 25.795 9.1254 26.406 23.799 3.598 26.154 5.551 53.245 16.878 77.498 6.996 13.812 6.994 30.864 3.777 45.36-40.625 12.468-68.094 48.355-84.744 85.734-4.764 8.4646-5.78 21.163-16.854 23.9-123.39 51.875-246.36 104.82-369.39 157.58-6.0816 1.1919-4.658 8.2348-5.319 12.796-5.5257 89.458-8.6689 180.82 13.253 268.5 39.989 163.28 149.21 307.38 293.26 393.34 156.08 93.691 355.58 111.79 525.37 45.49 226.84-86.722 392.93-314.57 402-557.83 0.936-53.599 1.269-107.38-3.395-160.8-126.68-53.777-253.62-107.66-379.7-162.62-19.235-43.031-44.149-90.901-92.502-106.11-1.42-16.067-2.102-33.402 5.957-48 12.012-26.33 10.442-56.487 18.145-83.578 30.032-11.328 37.53-46.1 48.58-72.786 4.055-19.285 5.348-47.644-16.624-56.412 6.488-50.938 39.712-110.92 3.98-157.98-11-19.463-12.952-42.046-14.37-63.866-30.462-6.5637-56.386-24.757-76.584-47.996-13.78-15.453-33.762-17.407-53.282-16.252zm-181.14 137.9c80.893 32.286 179.7 54.687 269.46 33.095 11.328 14.521 9.073 34.314 4.233 50.888-5.753 22.986 1.62 46.2 12.544 66.297 3.749 60.67-7.933 121.34-26.205 178.99-17.081 50.963-39.33 103.62-80.461 139.84-43.007 21.389-107.12 18.019-134.24-26.914-58.009-82.236-83.985-185.58-81.477-285.53-1.571-17.486 12.919-30.89 12.849-48.174 3.952-21.161-13.534-42.147-2.484-62.522 9.504-14.8 19.591-29.319 25.774-45.969zm224.93 146.79c-9.153 0.1653-18.465 1.0982-27.059 1.4625-18.246 1.4187-36.618 3.6221-54.206 8.8172 1.064 16.067 6.841 31.707 5.472 47.951 30.157-4.9164 63.482-17.057 92.499-1.8261-8.06-14.192-26.179-20.68-36.24-31.046 21.414-3.5983 45.797-2.1551 68.249-0.8879-9.216-21.448-28.578-24.829-48.715-24.471zm-197.6 0.6249c-9.101 0.072-18.193 0.3592-27.234 0.8125-10.492 2.8642-16.396 14.267-23.364 22.047 22.832 0.7858 48.558-4.3849 69.567 4.0795-12.013 7.9574-25.825 14.142-34.164 26.483 29.599-7.1211 68.499-6.8431 92.776 11.352 0-18.576 2.613-37 3.424-55.525-26.325-7.2606-53.706-9.4027-81.005-9.2505zm109.18 25.9c-2.813 41.713 2.635 83.682 1.953 125.52-14.242 4.1055-28.939-4.3625-43.385-5.045 11.404 12.494 23.72 24.227 36.443 35.378 15.585-9.6053 29.372-22.326 42.677-34.895-7.933-0.8613-28.03 8.1857-19.438-5.6766-4.917-37.405-11.256-84.265-18.25-115.28zm-3.352 179.29c-10.738 0.072-21.484 0.625-31.747 0.589-11.606 1.8498-23.568 3.1192-34.466 7.8072 38.445 6.7707 79.12 6.3885 117.56 0.4095-15.586-7.6663-33.457-8.9164-51.351-8.8014zm-39.342 34.94h-11.131c20.098 29.826 67.916 28.028 89.077 0.2515-25.99 0.273-51.976-0.23-77.946-0.2658zm168.65 66.13c12.749 6.3101 27.725 15.587 32.159 29.323-27.751 62.773-61.428 122.99-94.399 183.17-6.486-14.42-11.482-29.7-18.957-43.511-37.862-1.2148-75.824-0.3305-113.71-0.2515-7.933 12.088-9.425 32.437-19.512 40.293-33.223-58.92-65.029-118.73-95.669-178.99 5.804-13.456 20.324-23.241 33.881-28.715 7.401 10.492-4.028 32.136 10.165 41.284 42.575 39.382 84.009 80.054 126.43 119.64 2.205 3.1667 5.905 2.3304 8.16-0.3303 43.132-40.421 86.242-80.994 127.85-122.96 5.374-12.012 1.445-26.126 3.598-38.949zm34.316 31.806c35.023 60.087 51.875 129.93 62.367 198.33-29.854 27.952-63.583 51.724-94.5 78.536 17.157 14.901 39.304 26.281 55.32 40.675-30.613 29.575-21.717 73.368-15.458 110.57-81.375 130.06-163.56 259.83-243.77 390.6 46.831-53.396 89.888-110.77 132.64-167.69 39.382-70.426 73.29-143.89 111.53-214.95 8.667 19.742-1.319 53.726 27.065 57.755 1.598-32.337-5.623-65.077-2.988-97.54 0.837-9.1233 13.783-7.5781 10.717-17.715-1.978-44.983 71.012-53.194 83.887-12.038 7.653 41.841-0.303 84.794-1.371 127.01 6.588-3.3204 17.612-3.9002 18.803-12.796 7.096-33.325 14.067-66.703 21.011-100.08 6.158-35.808-17.334-73.924-52.232-84.238-6.791-1.1912-3.876-9.6277-4.713-14.392-0.561-76.712-12.571-153.22-36.571-226.11 89.636 52.94 178.06 108.04 266.3 163.26 32.539 36.544 41.332 88.721 41.232 136.29-2.964 111.66-48.684 219.72-116.12 307.61-12.064-69.641-25.267-139.11-36.948-208.82-1.418-5.9803-2.639 3.1171-2.028 4.8405 1.925 82.565 2.532 165.51 2.102 247.87-115.33 131.02-298.13 198.36-470.99 174.05-125.9-16.473-244.53-79.829-329.73-173.72-2.942-83.3 2.861-168.07-0.56-250.99-11.125 69.59-25.696 138.62-35.656 208.37-75.393-98.075-124.43-222.35-114.68-347.39 4.3843-35.048 14.368-72.862 40.623-97.926 88.191-55.702 177.32-109.98 267.06-163.13-46.199 136.44-52.435 282.09-54.158 424.89-28.715 9.2748-51.723 36.114-51.824 67.032-2.787 40.599 35.882 77.495 76.228 73.896 40.369-1.1911 74.201-41.688 66.929-81.704-4.004-27.648-25.873-50.049-51.924-58.564-0.251-80.006 3.95-160.45 14.923-239.74 20.147 13.634 39.688 28.361 59.277 42.68-10.617 18.576-26.762 33.727-37.913 52.05 29.372-17.689 56.791-38.951 83.934-59.782-32.641-26.229-66.903-50.707-98.074-78.685 12.291-67.918 28.84-136.92 62.266-197.82 25.774 81.172 42.754 165.21 66.728 247.06 25.292 91.486 50.381 183.05 75.749 274.48-1.42 34.085-10.876 67.616-14.88 101.57-53.319-81.856-100.84-170.2-154.58-252.36 46.884 101.07 97.565 200.58 145.82 300.94-8.237 58.718-18.195 117.39-27.801 175.93 3.397-4.9927 5.374-10.77 6.946-16.523 84.769-276.71 177.04-551.42 250-831.58zm-107.5 175.8c23.213 27.344 8.97 66.067-2.637 97.491-7.855-17.359-16.65-34.441-23.847-52.08 7.857-15.509 17.867-30.232 26.484-45.411zm-133.15 1.1651c7.426 7.6025 17.183 30.485 25.139 44.195-6.968 18.246-14.472 36.469-22.707 54.158-5.601-21.389-14.167-42.118-18.145-63.862 5.803-11.226 11.761-22.403 15.713-34.491zm303.75 70.121c6.817 6.8934 2.155 32.843 3.396 46.908-12.493 2.3066-23.441 9.1994-34.617 14.04-6.868-7.1973-13.685-14.647-19.489-22.63 17.004-12.62 33.629-25.824 50.71-38.318zm-232.95 11.53c10.088 42.751 11.861 88.674-2.812 130.64-3.472-20.603-9.301-41.006-10.974-61.786 4.181-22.986 8.414-46.073 13.786-68.855z" stroke-width="2.5342"/></g></svg>